<?xml version="1.0" standalone="no"?>
<!DOCTYPE svg PUBLIC "-//W3C//DTD SVG 20010904//EN"
 "http://www.w3.org/TR/2001/REC-SVG-20010904/DTD/svg10.dtd">
<svg version="1.0" xmlns="http://www.w3.org/2000/svg"
 width="200.000000pt" height="200.000000pt" viewBox="0 0 200.000000 200.000000"
 preserveAspectRatio="xMidYMid meet">
<metadata>
Created by potrace 1.14, written by Peter Selinger 2001-2017
</metadata>
<g transform="translate(0.000000,200.000000) scale(0.100000,-0.100000)"
fill="#000000" stroke="none">
<path d="M512 1579 c-88 -17 -179 -68 -243 -136 -36 -40 -61 -59 -64 -51 -2 7
-6 47 -7 88 l-3 75 -87 3 -88 3 0 -636 0 -635 100 0 100 0 0 375 c0 236 4 393
11 427 27 128 101 228 207 280 61 30 74 33 162 33 87 0 100 -3 150 -30 59 -33
112 -94 132 -153 9 -27 13 -163 15 -485 l4 -447 99 0 100 0 0 368 c0 224 4
392 11 428 34 184 168 311 343 322 140 9 247 -49 297 -160 l24 -53 3 -452 3
-453 99 0 100 0 0 458 c0 392 -2 466 -16 513 -23 78 -50 125 -102 181 -53 57
-103 89 -188 119 -81 30 -254 32 -334 5 -125 -43 -208 -101 -260 -182 l-26
-42 -28 44 c-94 149 -316 232 -514 193z"/>
</g>
</svg>
